<?xml version="1.0" encoding="utf-8"?>

<!DOCTYPE svg PUBLIC "-//W3C//DTD SVG 1.1//EN" "http://www.w3.org/Graphics/SVG/1.1/DTD/svg11.dtd">
<!-- Uploaded to: SVG Repo, www.svgrepo.com, Generator: SVG Repo Mixer Tools -->
<svg height="800px" width="800px" version="1.1" id="_x32_" xmlns="http://www.w3.org/2000/svg" xmlns:xlink="http://www.w3.org/1999/xlink" 
	 viewBox="0 0 512 512"  xml:space="preserve">
<style type="text/css">
	.st0{fill:#000000;}
</style>
<g>
	<path class="st0" d="M449.8,88.74l-160.157,92.456l43.91,25.336l2.001,1.204l171.388,98.935c3.361-16.718,5.058-33.73,5.058-50.663
		C512,194.441,489.938,135.176,449.8,88.74z"/>
	<path class="st0" d="M256,0.009c-16.016,0-32.144,1.524-47.999,4.539v184.938L425.33,64.089C378.522,22.72,318.616,0.009,256,0.009
		z"/>
	<path class="st0" d="M174.418,13.348c-37.298,12.551-71.581,33.781-99.446,61.646c-27.185,27.198-48.146,60.606-60.758,96.813
		l160.179,92.577L174.418,13.348z"/>
	<path class="st0" d="M188.996,311.54l-0.043,0.052L5.054,205.328C1.702,222.019,0,239.04,0,256.009
		c0,61.585,22.096,120.876,62.279,167.354l160.156-92.499L188.996,311.54z"/>
	<path class="st0" d="M256,511.991c16.012,0,32.135-1.516,47.982-4.539V322.548L86.778,448.007
		C133.6,489.324,193.466,511.991,256,511.991z"/>
	<path class="st0" d="M337.616,298.426l-0.052,2.286V498.67c37.294-12.534,71.577-33.764,99.451-61.638
		c27.198-27.189,48.16-60.615,60.797-96.856l-160.196-92.474V298.426z"/>
</g>
</svg>